{"scene":0,"scenes":[{"nodes":[0],"extras":{"file_path":"/home/shrey/backend/tmps0hjdq_q.glb","file_name":"tmps0hjdq_q.glb"}}],"asset":{"version":"2.0","generator":"https://github.com/mikedh/trimesh"},"accessors":[{"componentType":5125,"type":"SCALAR","bufferView":0,"count":148320,"max":[24731],"min":[0]},{"componentType":5126,"type":"VEC3","byteOffset":0,"bufferView":1,"count":24732,"max":[0.7204525470733643,0.9825764894485474,0.5747140049934387],"min":[-0.6903702020645142,-0.9038374423980713,-0.6206772923469543]},{"componentType":5121,"normalized":true,"type":"VEC4","byteOffset":0,"bufferView":2,"count":24732,"max":[232,225,205,255],"min":[4,4,4,255]}],"meshes":[{"name":"geometry_0","extras":{"units":"meters","processed":true,"from_gltf_primitive":false},"primitives":[{"attributes":{"POSITION":1,"COLOR_0":2},"indices":0,"mode":4}]}],"nodes":[{"name":"world","children":[1]},{"name":"geometry_0","mesh":0}],"buffers":[{"uri":"gltf_buffer_0.bin","byteLength":593280},{"uri":"gltf_buffer_1.bin","byteLength":296784},{"uri":"gltf_buffer_2.bin","byteLength":98928}],"bufferViews":[{"buffer":0,"byteOffset":0,"byteLength":593280},{"buffer":1,"byteOffset":0,"byteLength":296784},{"buffer":2,"byteOffset":0,"byteLength":98928}]}