{"scene":0,"scenes":[{"nodes":[0],"extras":{"file_path":"/home/shrey/backend/bucee/bucee.glb","file_name":"bucee.glb"}}],"asset":{"version":"2.0","generator":"https://github.com/mikedh/trimesh"},"accessors":[{"componentType":5125,"type":"SCALAR","bufferView":0,"count":320700,"max":[53441],"min":[0]},{"componentType":5126,"type":"VEC3","byteOffset":0,"bufferView":1,"count":53442,"max":[1.000141978263855,0.6416264176368713,0.7133458852767944],"min":[-1.000488519668579,-0.44596341252326965,-0.757409393787384]},{"componentType":5121,"normalized":true,"type":"VEC4","byteOffset":0,"bufferView":2,"count":53442,"max":[215,211,210,255],"min":[5,4,4,255]}],"meshes":[{"name":"geometry_0","extras":{"units":"meters","processed":true,"from_gltf_primitive":false},"primitives":[{"attributes":{"POSITION":1,"COLOR_0":2},"indices":0,"mode":4}]}],"nodes":[{"name":"world","children":[1]},{"name":"geometry_0","mesh":0}],"buffers":[{"uri":"gltf_buffer_0.bin","byteLength":1282800},{"uri":"gltf_buffer_1.bin","byteLength":641304},{"uri":"gltf_buffer_2.bin","byteLength":213768}],"bufferViews":[{"buffer":0,"byteOffset":0,"byteLength":1282800},{"buffer":1,"byteOffset":0,"byteLength":641304},{"buffer":2,"byteOffset":0,"byteLength":213768}]}