{"scene":0,"scenes":[{"nodes":[0],"extras":{"file_path":"/home/shrey/backend/image_data/48b674d2-9182-408c-b610-9be9cafe38d9/model/asset.glb","file_name":"asset.glb"}}],"asset":{"version":"2.0","generator":"https://github.com/mikedh/trimesh"},"accessors":[{"componentType":5125,"type":"SCALAR","bufferView":0,"count":199272,"max":[33215],"min":[0]},{"componentType":5126,"type":"VEC3","byteOffset":0,"bufferView":1,"count":33216,"max":[0.5252686142921448,0.958747148513794,0.804230272769928],"min":[-0.5240058302879333,-0.9555200338363647,-0.921072781085968]},{"componentType":5121,"normalized":true,"type":"VEC4","byteOffset":0,"bufferView":2,"count":33216,"max":[217,211,212,255],"min":[11,9,6,255]}],"meshes":[{"name":"geometry_0","extras":{"units":"meters","processed":true,"from_gltf_primitive":false},"primitives":[{"attributes":{"POSITION":1,"COLOR_0":2},"indices":0,"mode":4}]}],"nodes":[{"name":"world","children":[1]},{"name":"geometry_0","mesh":0}],"buffers":[{"uri":"gltf_buffer_0.bin","byteLength":797088},{"uri":"gltf_buffer_1.bin","byteLength":398592},{"uri":"gltf_buffer_2.bin","byteLength":132864}],"bufferViews":[{"buffer":0,"byteOffset":0,"byteLength":797088},{"buffer":1,"byteOffset":0,"byteLength":398592},{"buffer":2,"byteOffset":0,"byteLength":132864}]}